<?xml version="1.0" encoding="UTF-8"?><svg id="Layer_2" xmlns="http://www.w3.org/2000/svg" viewBox="0 0 477.64 482.41"><defs><style>.cls-1{fill:#0da5e9;stroke-width:0px;}</style></defs><g id="Icon"><path class="cls-1" d="M368.65,172.74h101.28c4.25,0,7.7,3.45,7.7,7.7v270.37c0,17.01-13.81,30.82-30.82,30.82h-78.17c-4.25,0-7.7-3.45-7.7-7.7V180.44c0-4.25,3.45-7.7,7.7-7.7Z"/><path class="cls-1" d="M368.72,0h77.83c17.16,0,31.09,13.93,31.09,31.09v37.81c0,4.29-3.48,7.77-7.77,7.77h-101.14c-4.29,0-7.77-3.48-7.77-7.77V7.77c0-4.29,3.48-7.77,7.77-7.77Z"/><path class="cls-1" d="M7.43,395.87h255.09c4.1,0,7.43,3.33,7.43,7.43v71.67c0,4.1-3.33,7.43-7.43,7.43H29.73c-16.41,0-29.73-13.32-29.73-29.73v-49.37c0-4.1,3.33-7.43,7.43-7.43Z"/><rect class="cls-1" y="172.74" width="269.96" height="122.27" rx="7.6" ry="7.6"/><path class="cls-1" d="M31.06,0h231.13c4.29,0,7.77,3.48,7.77,7.77v61.14c0,4.29-3.48,7.77-7.77,7.77H7.77c-4.29,0-7.77-3.48-7.77-7.77V31.06C0,13.92,13.92,0,31.06,0Z"/><polygon class="cls-1" points="314 272.54 314 272.54 279.26 359.7 314.3 341.68 349.33 359.7 314 272.54"/></g></svg>